<mxfile host="app.diagrams.net" modified="2024-07-24T14:30:59.982Z" agent="Mozilla/5.0 (Macintosh; Intel Mac OS X 10_15_7) AppleWebKit/537.36 (KHTML, like Gecko) Chrome/126.0.0.0 Safari/537.36" version="24.5.1" etag="tQcX76Rcmi-ghNMnz0pt" type="github">
  <diagram name="第 1 页" id="EZiBnc2ZjAQWwN5wSLJe">
    <mxGraphModel>
      <root>
        <mxCell id="0" />
        <mxCell id="1" parent="0" />
      </root>
    </mxGraphModel>
  </diagram>
</mxfile>
